<mxfile host="Electron" modified="2023-11-06T06:33:49.823Z" agent="Mozilla/5.0 (X11; Linux x86_64) AppleWebKit/537.36 (KHTML, like Gecko) draw.io/22.0.3 Chrome/114.0.5735.289 Electron/25.8.4 Safari/537.36" etag="wl6sKRO9DNrMe58Tl8bZ" version="22.0.3" type="device">
  <diagram name="Page-1" id="qFCPr3h47qFFb1gkWBrg">
    <mxGraphModel dx="5222" dy="2463" grid="1" gridSize="10" guides="1" tooltips="1" connect="1" arrows="1" fold="1" page="1" pageScale="1" pageWidth="850" pageHeight="1100" math="0" shadow="0">
      <root>
        <mxCell id="0" />
        <mxCell id="1" parent="0" />
        <mxCell id="CpOMK_Is4fyslUZbquwD-1" value="" style="shape=callout;whiteSpace=wrap;html=1;perimeter=calloutPerimeter;fillStyle=auto;rounded=0;shadow=0;rotation=90;fontStyle=1" vertex="1" parent="1">
          <mxGeometry x="-178" y="-854" width="312.5" height="345" as="geometry" />
        </mxCell>
        <mxCell id="CpOMK_Is4fyslUZbquwD-2" value="" style="shape=callout;whiteSpace=wrap;html=1;perimeter=calloutPerimeter;fillStyle=auto;rounded=0;shadow=0;rotation=-90;fontStyle=1" vertex="1" parent="1">
          <mxGeometry x="-1066" y="-786" width="610" height="844" as="geometry" />
        </mxCell>
        <mxCell id="CpOMK_Is4fyslUZbquwD-3" value="" style="rounded=0;whiteSpace=wrap;html=1;dashed=1;fontStyle=1" vertex="1" parent="1">
          <mxGeometry x="-1168" y="-624" width="790" height="540" as="geometry" />
        </mxCell>
        <mxCell id="CpOMK_Is4fyslUZbquwD-4" value="" style="rounded=0;whiteSpace=wrap;html=1;fontStyle=1" vertex="1" parent="1">
          <mxGeometry x="-628" y="-574" width="230" height="455" as="geometry" />
        </mxCell>
        <mxCell id="CpOMK_Is4fyslUZbquwD-5" value="Flight Plan" style="rounded=0;whiteSpace=wrap;html=1;fillColor=#d5e8d4;strokeColor=#82b366;fontStyle=1" vertex="1" parent="1">
          <mxGeometry x="-325.5" y="-742" width="120" height="60" as="geometry" />
        </mxCell>
        <mxCell id="CpOMK_Is4fyslUZbquwD-6" value="&lt;div&gt;Flight Authorization&amp;nbsp;&lt;/div&gt;&lt;div&gt;Status&lt;/div&gt;" style="rhombus;whiteSpace=wrap;html=1;fillColor=#f8cecc;strokeColor=#b85450;fontStyle=1" vertex="1" parent="1">
          <mxGeometry x="-328" y="-444" width="145" height="120" as="geometry" />
        </mxCell>
        <mxCell id="CpOMK_Is4fyslUZbquwD-7" value="JWT" style="rounded=0;whiteSpace=wrap;html=1;fillColor=#f5f5f5;fontColor=#333333;strokeColor=#666666;fontStyle=1" vertex="1" parent="1">
          <mxGeometry x="-318" y="-704" width="120" height="60" as="geometry" />
        </mxCell>
        <mxCell id="CpOMK_Is4fyslUZbquwD-8" value="" style="endArrow=classic;html=1;rounded=0;exitX=0.567;exitY=1.067;exitDx=0;exitDy=0;exitPerimeter=0;fontStyle=1" edge="1" parent="1">
          <mxGeometry width="50" height="50" relative="1" as="geometry">
            <mxPoint x="-259.96000000000004" y="-644" as="sourcePoint" />
            <mxPoint x="320" y="-498.27" as="targetPoint" />
            <Array as="points">
              <mxPoint x="-260" y="-498.02" />
            </Array>
          </mxGeometry>
        </mxCell>
        <mxCell id="CpOMK_Is4fyslUZbquwD-9" value="" style="endArrow=classic;html=1;rounded=0;exitX=0.5;exitY=1;exitDx=0;exitDy=0;fontStyle=1" edge="1" parent="1">
          <mxGeometry width="50" height="50" relative="1" as="geometry">
            <mxPoint x="-256" y="-324" as="sourcePoint" />
            <mxPoint x="-256" y="-244" as="targetPoint" />
          </mxGeometry>
        </mxCell>
        <mxCell id="CpOMK_Is4fyslUZbquwD-10" value="flight_approved" style="text;html=1;strokeColor=none;fillColor=none;align=center;verticalAlign=middle;whiteSpace=wrap;rounded=0;fontStyle=1" vertex="1" parent="1">
          <mxGeometry x="-235.5" y="-304" width="60" height="30" as="geometry" />
        </mxCell>
        <mxCell id="CpOMK_Is4fyslUZbquwD-11" value="" style="endArrow=classic;html=1;rounded=0;exitX=1;exitY=0.5;exitDx=0;exitDy=0;entryX=0.059;entryY=0.522;entryDx=0;entryDy=0;entryPerimeter=0;fontStyle=1" edge="1" parent="1" source="CpOMK_Is4fyslUZbquwD-6" target="CpOMK_Is4fyslUZbquwD-57">
          <mxGeometry width="50" height="50" relative="1" as="geometry">
            <mxPoint x="-205.5" y="-464" as="sourcePoint" />
            <mxPoint x="-40" y="-340" as="targetPoint" />
            <Array as="points">
              <mxPoint x="-150" y="-384" />
            </Array>
          </mxGeometry>
        </mxCell>
        <mxCell id="CpOMK_Is4fyslUZbquwD-12" value="flight_rejected" style="text;html=1;strokeColor=none;fillColor=none;align=center;verticalAlign=middle;whiteSpace=wrap;rounded=0;fontStyle=1" vertex="1" parent="1">
          <mxGeometry x="-134.25" y="-380" width="60" height="30" as="geometry" />
        </mxCell>
        <mxCell id="CpOMK_Is4fyslUZbquwD-13" value="" style="endArrow=classic;html=1;rounded=0;exitX=0;exitY=0.5;exitDx=0;exitDy=0;entryX=0;entryY=0;entryDx=130;entryDy=30;entryPerimeter=0;fontStyle=1" edge="1" parent="1">
          <mxGeometry width="50" height="50" relative="1" as="geometry">
            <mxPoint x="-325.5" y="-704" as="sourcePoint" />
            <mxPoint x="-465.5" y="-702" as="targetPoint" />
          </mxGeometry>
        </mxCell>
        <mxCell id="CpOMK_Is4fyslUZbquwD-14" value="failure" style="text;html=1;strokeColor=none;fillColor=none;align=center;verticalAlign=middle;whiteSpace=wrap;rounded=0;fontStyle=1" vertex="1" parent="1">
          <mxGeometry x="-408" y="-724" width="60" height="30" as="geometry" />
        </mxCell>
        <mxCell id="CpOMK_Is4fyslUZbquwD-15" value="flight_submitted" style="text;html=1;strokeColor=none;fillColor=none;align=center;verticalAlign=middle;whiteSpace=wrap;rounded=0;fontStyle=1" vertex="1" parent="1">
          <mxGeometry x="-51.75" y="-519" width="60" height="30" as="geometry" />
        </mxCell>
        <mxCell id="CpOMK_Is4fyslUZbquwD-16" value="Upload Mission&amp;nbsp;" style="rounded=1;whiteSpace=wrap;html=1;fontStyle=1" vertex="1" parent="1">
          <mxGeometry x="-315.5" y="-244" width="120" height="60" as="geometry" />
        </mxCell>
        <mxCell id="CpOMK_Is4fyslUZbquwD-17" style="edgeStyle=orthogonalEdgeStyle;rounded=0;orthogonalLoop=1;jettySize=auto;html=1;entryX=0.5;entryY=1;entryDx=0;entryDy=0;fontStyle=1" edge="1" parent="1" source="CpOMK_Is4fyslUZbquwD-18" target="CpOMK_Is4fyslUZbquwD-56">
          <mxGeometry relative="1" as="geometry">
            <mxPoint x="440" y="-310" as="targetPoint" />
          </mxGeometry>
        </mxCell>
        <mxCell id="CpOMK_Is4fyslUZbquwD-18" value="UTM submit telemetry " style="rounded=0;whiteSpace=wrap;html=1;fillColor=#d5e8d4;strokeColor=#82b366;fontStyle=1" vertex="1" parent="1">
          <mxGeometry x="-315.5" y="-124" width="120" height="60" as="geometry" />
        </mxCell>
        <mxCell id="CpOMK_Is4fyslUZbquwD-19" value="" style="endArrow=classic;html=1;rounded=0;exitX=0.5;exitY=1;exitDx=0;exitDy=0;fontStyle=1" edge="1" parent="1">
          <mxGeometry width="50" height="50" relative="1" as="geometry">
            <mxPoint x="-256" y="-184" as="sourcePoint" />
            <mxPoint x="-255.5" y="-124" as="targetPoint" />
          </mxGeometry>
        </mxCell>
        <mxCell id="CpOMK_Is4fyslUZbquwD-20" value="Automatic GeoFence" style="rounded=0;whiteSpace=wrap;html=1;fontStyle=1" vertex="1" parent="1">
          <mxGeometry x="-628" y="-574" width="150" height="30" as="geometry" />
        </mxCell>
        <mxCell id="CpOMK_Is4fyslUZbquwD-21" value="Waypoint button" style="rounded=0;whiteSpace=wrap;html=1;fontStyle=1" vertex="1" parent="1">
          <mxGeometry x="-593" y="-489" width="100" height="30" as="geometry" />
        </mxCell>
        <mxCell id="CpOMK_Is4fyslUZbquwD-22" value="&lt;div style=&quot;text-align: left;&quot;&gt;&lt;span style=&quot;background-color: initial;&quot;&gt;User should add the waypoint on map.&lt;/span&gt;&lt;/div&gt;" style="rounded=0;whiteSpace=wrap;html=1;fontStyle=1" vertex="1" parent="1">
          <mxGeometry x="-593" y="-459" width="175" height="60" as="geometry" />
        </mxCell>
        <mxCell id="CpOMK_Is4fyslUZbquwD-23" value="Fence_Calculator" style="rounded=0;whiteSpace=wrap;html=1;fontStyle=1" vertex="1" parent="1">
          <mxGeometry x="-593" y="-369" width="100" height="30" as="geometry" />
        </mxCell>
        <mxCell id="CpOMK_Is4fyslUZbquwD-24" value="&lt;div style=&quot;text-align: left;&quot;&gt;Using waypoints compute&amp;nbsp; all the polygon latitude and longitude&lt;/div&gt;" style="rounded=0;whiteSpace=wrap;html=1;fontStyle=1" vertex="1" parent="1">
          <mxGeometry x="-593" y="-339" width="175" height="60" as="geometry" />
        </mxCell>
        <mxCell id="CpOMK_Is4fyslUZbquwD-25" value="Display Polygon" style="rounded=0;whiteSpace=wrap;html=1;fontStyle=1" vertex="1" parent="1">
          <mxGeometry x="-593" y="-239" width="100" height="30" as="geometry" />
        </mxCell>
        <mxCell id="CpOMK_Is4fyslUZbquwD-26" value="&lt;div style=&quot;text-align: left;&quot;&gt;Add the polygon on the flightmap&lt;/div&gt;" style="rounded=0;whiteSpace=wrap;html=1;fontStyle=1" vertex="1" parent="1">
          <mxGeometry x="-593" y="-209" width="175" height="60" as="geometry" />
        </mxCell>
        <mxCell id="CpOMK_Is4fyslUZbquwD-27" value="" style="rounded=0;whiteSpace=wrap;html=1;fontStyle=1" vertex="1" parent="1">
          <mxGeometry x="-868" y="-574" width="230" height="455" as="geometry" />
        </mxCell>
        <mxCell id="CpOMK_Is4fyslUZbquwD-28" value="Manual GeoFence" style="rounded=0;whiteSpace=wrap;html=1;fontStyle=1" vertex="1" parent="1">
          <mxGeometry x="-868" y="-574" width="150" height="30" as="geometry" />
        </mxCell>
        <mxCell id="CpOMK_Is4fyslUZbquwD-29" value="Waypoint button" style="rounded=0;whiteSpace=wrap;html=1;fontStyle=1" vertex="1" parent="1">
          <mxGeometry x="-833" y="-489" width="100" height="30" as="geometry" />
        </mxCell>
        <mxCell id="CpOMK_Is4fyslUZbquwD-30" value="&lt;div style=&quot;text-align: left;&quot;&gt;&lt;span style=&quot;background-color: initial;&quot;&gt;User should add the waypoint on map.&lt;/span&gt;&lt;/div&gt;" style="rounded=0;whiteSpace=wrap;html=1;fontStyle=1" vertex="1" parent="1">
          <mxGeometry x="-833" y="-459" width="175" height="60" as="geometry" />
        </mxCell>
        <mxCell id="CpOMK_Is4fyslUZbquwD-31" value="Add points" style="rounded=0;whiteSpace=wrap;html=1;fontStyle=1" vertex="1" parent="1">
          <mxGeometry x="-833" y="-369" width="100" height="30" as="geometry" />
        </mxCell>
        <mxCell id="CpOMK_Is4fyslUZbquwD-32" value="&lt;div style=&quot;text-align: left;&quot;&gt;User will manually add the points for Geofence&amp;nbsp;&lt;/div&gt;" style="rounded=0;whiteSpace=wrap;html=1;fontStyle=1" vertex="1" parent="1">
          <mxGeometry x="-833" y="-339" width="175" height="60" as="geometry" />
        </mxCell>
        <mxCell id="CpOMK_Is4fyslUZbquwD-33" value="Display Polygon" style="rounded=0;whiteSpace=wrap;html=1;fontStyle=1" vertex="1" parent="1">
          <mxGeometry x="-833" y="-239" width="100" height="30" as="geometry" />
        </mxCell>
        <mxCell id="CpOMK_Is4fyslUZbquwD-34" value="&lt;div style=&quot;text-align: left;&quot;&gt;Add the polygon on the flightmap&lt;/div&gt;" style="rounded=0;whiteSpace=wrap;html=1;fontStyle=1" vertex="1" parent="1">
          <mxGeometry x="-833" y="-209" width="175" height="60" as="geometry" />
        </mxCell>
        <mxCell id="CpOMK_Is4fyslUZbquwD-35" value="" style="rounded=0;whiteSpace=wrap;html=1;fontStyle=1" vertex="1" parent="1">
          <mxGeometry x="-1138" y="-574" width="260" height="170" as="geometry" />
        </mxCell>
        <mxCell id="CpOMK_Is4fyslUZbquwD-36" value="Altitude Fence" style="rounded=0;whiteSpace=wrap;html=1;fontStyle=1" vertex="1" parent="1">
          <mxGeometry x="-1138" y="-574" width="150" height="30" as="geometry" />
        </mxCell>
        <mxCell id="CpOMK_Is4fyslUZbquwD-37" value="Min and Max altitude" style="rounded=0;whiteSpace=wrap;html=1;fontStyle=1" vertex="1" parent="1">
          <mxGeometry x="-1095.5" y="-524" width="117.5" height="30" as="geometry" />
        </mxCell>
        <mxCell id="CpOMK_Is4fyslUZbquwD-38" value="&lt;div style=&quot;text-align: left;&quot;&gt;User have to add the min and max altiude fence for flight plan&lt;/div&gt;" style="rounded=0;whiteSpace=wrap;html=1;fontStyle=1" vertex="1" parent="1">
          <mxGeometry x="-1095.5" y="-494" width="175" height="60" as="geometry" />
        </mxCell>
        <mxCell id="CpOMK_Is4fyslUZbquwD-39" value="" style="rounded=0;whiteSpace=wrap;html=1;fontStyle=1" vertex="1" parent="1">
          <mxGeometry x="-1138" y="-399" width="260" height="275" as="geometry" />
        </mxCell>
        <mxCell id="CpOMK_Is4fyslUZbquwD-40" value="Start and End Time" style="rounded=0;whiteSpace=wrap;html=1;fontStyle=1" vertex="1" parent="1">
          <mxGeometry x="-1138" y="-399" width="150" height="30" as="geometry" />
        </mxCell>
        <mxCell id="CpOMK_Is4fyslUZbquwD-41" value="Start Date &amp;amp; Time" style="rounded=0;whiteSpace=wrap;html=1;fontStyle=1" vertex="1" parent="1">
          <mxGeometry x="-1124.25" y="-354" width="117.5" height="30" as="geometry" />
        </mxCell>
        <mxCell id="CpOMK_Is4fyslUZbquwD-42" value="&lt;div style=&quot;text-align: left;&quot;&gt;By defaut take the current time &amp;amp; upcomming date and time&lt;/div&gt;" style="rounded=0;whiteSpace=wrap;html=1;fontStyle=1" vertex="1" parent="1">
          <mxGeometry x="-1124.25" y="-324" width="175" height="60" as="geometry" />
        </mxCell>
        <mxCell id="CpOMK_Is4fyslUZbquwD-43" value="End Date &amp;amp; Time" style="rounded=0;whiteSpace=wrap;html=1;fontStyle=1" vertex="1" parent="1">
          <mxGeometry x="-1124.25" y="-249" width="117.5" height="30" as="geometry" />
        </mxCell>
        <mxCell id="CpOMK_Is4fyslUZbquwD-44" value="&lt;div style=&quot;text-align: left;&quot;&gt;&lt;ul&gt;&lt;li&gt;Date should be same.&lt;/li&gt;&lt;li&gt;keep same hour as privious and give access to update min and sec to user.&lt;/li&gt;&lt;/ul&gt;&lt;/div&gt;" style="rounded=0;whiteSpace=wrap;html=1;fontStyle=1" vertex="1" parent="1">
          <mxGeometry x="-1124.25" y="-219" width="176.25" height="75" as="geometry" />
        </mxCell>
        <mxCell id="CpOMK_Is4fyslUZbquwD-45" value="USP Flight Plan Flow" style="rounded=0;whiteSpace=wrap;html=1;fontStyle=1" vertex="1" parent="1">
          <mxGeometry x="-1168" y="-624" width="150" height="30" as="geometry" />
        </mxCell>
        <mxCell id="CpOMK_Is4fyslUZbquwD-46" value="" style="rounded=0;whiteSpace=wrap;html=1;fontStyle=1" vertex="1" parent="1">
          <mxGeometry x="-144.25" y="-790.25" width="260" height="250" as="geometry" />
        </mxCell>
        <mxCell id="CpOMK_Is4fyslUZbquwD-47" value="User ID" style="rounded=0;whiteSpace=wrap;html=1;fillColor=#fff2cc;strokeColor=#d6b656;fontStyle=1" vertex="1" parent="1">
          <mxGeometry x="-73" y="-750.25" width="117.5" height="20" as="geometry" />
        </mxCell>
        <mxCell id="CpOMK_Is4fyslUZbquwD-48" value="&lt;div style=&quot;text-align: left;&quot;&gt;Oauth2.0 client credential grant flow&lt;br&gt;&lt;/div&gt;" style="rounded=0;whiteSpace=wrap;html=1;fontStyle=1" vertex="1" parent="1">
          <mxGeometry x="-131.75" y="-640.25" width="237.5" height="80" as="geometry" />
        </mxCell>
        <mxCell id="CpOMK_Is4fyslUZbquwD-49" value="Password" style="rounded=0;whiteSpace=wrap;html=1;fillColor=#fff2cc;strokeColor=#d6b656;fontStyle=1" vertex="1" parent="1">
          <mxGeometry x="-74.25" y="-720.25" width="117.5" height="20" as="geometry" />
        </mxCell>
        <mxCell id="CpOMK_Is4fyslUZbquwD-50" value="Login" style="rounded=0;whiteSpace=wrap;html=1;fillColor=#dae8fc;strokeColor=#6c8ebf;fontStyle=1" vertex="1" parent="1">
          <mxGeometry x="-100.5" y="-680.25" width="170" height="20" as="geometry" />
        </mxCell>
        <mxCell id="CpOMK_Is4fyslUZbquwD-51" value="Authentication and Authorization" style="rounded=0;whiteSpace=wrap;html=1;fontStyle=1" vertex="1" parent="1">
          <mxGeometry x="-164.25" y="-840.25" width="234.25" height="40" as="geometry" />
        </mxCell>
        <mxCell id="CpOMK_Is4fyslUZbquwD-52" value="success" style="text;html=1;strokeColor=none;fillColor=none;align=center;verticalAlign=middle;whiteSpace=wrap;rounded=0;fontStyle=1" vertex="1" parent="1">
          <mxGeometry x="-328" y="-334" width="60" height="30" as="geometry" />
        </mxCell>
        <mxCell id="CpOMK_Is4fyslUZbquwD-53" value="Notification" style="ellipse;shape=cloud;whiteSpace=wrap;html=1;fontStyle=1" vertex="1" parent="1">
          <mxGeometry x="-578" y="-749" width="120" height="80" as="geometry" />
        </mxCell>
        <mxCell id="CpOMK_Is4fyslUZbquwD-54" value="JWT" style="rounded=0;whiteSpace=wrap;html=1;fillColor=#f5f5f5;fontColor=#333333;strokeColor=#666666;fontStyle=1" vertex="1" parent="1">
          <mxGeometry x="-303" y="-70" width="120" height="60" as="geometry" />
        </mxCell>
        <mxCell id="CpOMK_Is4fyslUZbquwD-55" style="edgeStyle=orthogonalEdgeStyle;rounded=0;orthogonalLoop=1;jettySize=auto;html=1;entryX=0.5;entryY=0;entryDx=0;entryDy=0;fontStyle=1" edge="1" parent="1" source="CpOMK_Is4fyslUZbquwD-56" target="CpOMK_Is4fyslUZbquwD-6">
          <mxGeometry relative="1" as="geometry">
            <Array as="points">
              <mxPoint x="-255" y="-480" />
            </Array>
          </mxGeometry>
        </mxCell>
        <mxCell id="CpOMK_Is4fyslUZbquwD-56" value="OpenUTM&lt;br&gt;USP" style="rounded=1;whiteSpace=wrap;html=1;fillColor=#e1d5e7;strokeColor=#9673a6;fontStyle=1" vertex="1" parent="1">
          <mxGeometry x="320" y="-554" width="210" height="150" as="geometry" />
        </mxCell>
        <mxCell id="CpOMK_Is4fyslUZbquwD-57" value="Notification" style="ellipse;shape=cloud;whiteSpace=wrap;html=1;fontStyle=1" vertex="1" parent="1">
          <mxGeometry x="-40" y="-419" width="118.25" height="69" as="geometry" />
        </mxCell>
      </root>
    </mxGraphModel>
  </diagram>
</mxfile>
